<?xml version="1.0" encoding="iso-8859-1"?>
<!-- Generator: Adobe Illustrator 16.0.0, SVG Export Plug-In . SVG Version: 6.00 Build 0)  -->
<!DOCTYPE svg PUBLIC "-//W3C//DTD SVG 1.1//EN" "http://www.w3.org/Graphics/SVG/1.1/DTD/svg11.dtd">
<svg version="1.1" id="Capa_1" xmlns="http://www.w3.org/2000/svg" xmlns:xlink="http://www.w3.org/1999/xlink" x="0px" y="0px"
	 width="40.644px" height="41.379px" viewBox="0 0 40.644 41.379" style="enable-background:new 0 0 40.644 41.379;"
	 xml:space="preserve">
<g class="svg_car">
	<path class="p1" d="M40.53,16.601c-0.257-2.263-6.35,0-6.35,0l-0.359,3.22c-0.133-0.076-0.268-0.15-0.41-0.213l-1.539-6.715
		c-0.564-3.197-2.977-5.552-6.494-5.431h-9.037c-0.055,0.375-0.143,0.738-0.252,1.093h9.899c2.053,0,3.934,1.321,4.448,3.502
		l1.653,6.63c-0.104-0.003-0.207-0.013-0.312-0.013H12.611l0.005,6.463h11.873v1.445H12.617l0.001,0.422h11.751v1.448H12.618
		l0.004,5.43h12.677v3.439c0,1.397,1.729,2.532,3.86,2.532s3.857-1.134,3.857-2.532v-3.837c1.821-0.688,3.089-2.193,3.089-3.944
		v-6.153c0-1.36-0.768-2.571-1.957-3.366l6.382-0.345C40.53,19.676,40.786,18.862,40.53,16.601z M33.219,28.344h-6.966v-3.312h6.966
		V28.344z"/>
	<rect x="12.441" y="27.003" width="0.177" height="1.448"/>
	<rect x="12.562" y="25.137" width="0.055" height="1.445"/>
	<path class="p2" d="M14.97,6.488C14.964,3.71,13.454,1.29,11.205,0v5.993L7.484,8.141L3.76,5.986V0C1.515,1.29,0.002,3.71,0,6.488
		c0,2.913,1.67,5.437,4.104,6.676v0.032v24.649c0,0.976,0.393,1.859,1.033,2.5c0.639,0.64,1.521,1.029,2.499,1.033
		c1.944,0,3.524-1.578,3.531-3.532l-0.015-24.839C13.431,11.725,14.967,9.283,14.97,6.488z M8.414,39.409
		c-0.526,0.528-1.382,0.528-1.912-0.001c-0.522-0.524-0.521-1.376,0.005-1.904c0.529-0.526,1.382-0.526,1.904-0.004
		C8.94,38.029,8.941,38.882,8.414,39.409z"/>
</g>

</svg>
