<?xml version="1.0" encoding="utf-8"?>
<!-- Generator: Adobe Illustrator 16.0.4, SVG Export Plug-In . SVG Version: 6.00 Build 0)  -->
<!DOCTYPE svg PUBLIC "-//W3C//DTD SVG 1.1//EN" "http://www.w3.org/Graphics/SVG/1.1/DTD/svg11.dtd">
<svg version="1.1" id="Layer_1" xmlns="http://www.w3.org/2000/svg" xmlns:xlink="http://www.w3.org/1999/xlink" x="0px" y="0px"
	 width="50px" height="50px" viewBox="0 0 50 50" enable-background="new 0 0 50 50" xml:space="preserve">
<path d="M25.827,21.559H14.521v-0.921h11.306V21.559z M14.521,25.661h8.709v-0.926h-8.709V25.661z M14.521,28.835v0.925h8.709
	v-0.925H14.521z M14.521,33.859h11.306v-0.924H14.521V33.859z M29.76,36.436l1.313-1.314c-0.446-0.021-0.886-0.081-1.313-0.184
	V36.436z M12.363,33.035V14.72c0-2.767,0.223-2.991,2.989-2.991h14.246c2.769,0,2.991,0.225,2.991,2.991v5.969
	c0.369,0.061,0.729,0.152,1.08,0.267V14.72c0-3.359-0.713-4.07-4.071-4.07H15.353c-3.357,0-4.069,0.711-4.069,4.07v18.315
	c0,3.357,0.712,4.07,4.069,4.07h13.738v-1.08H15.353C12.586,36.025,12.363,35.803,12.363,33.035z M34.566,33.305
	c-3,1.73-6.852,0.702-8.584-2.302c-1.731-2.997-0.699-6.849,2.301-8.581c3-1.73,6.852-0.701,8.584,2.3
	C38.6,27.721,37.568,31.573,34.566,33.305z M34.047,32.405c2.505-1.446,3.364-4.658,1.921-7.162
	c-1.446-2.504-4.659-3.364-7.163-1.921c-2.505,1.445-3.367,4.656-1.918,7.162C28.331,32.986,31.543,33.854,34.047,32.405z
	 M36.145,32.916l-2.701,1.562l2.08,3.599l2.701-1.562L36.145,32.916z M38.508,37.01l-2.703,1.561
	c0.432,0.748,1.387,1.002,2.133,0.572S38.938,37.758,38.508,37.01z"/>
</svg>
